<svg version="1" xmlns="http://www.w3.org/2000/svg" width="533.333" height="533.333" viewBox="0 0 400.000000 400.000000"><path d="M190.5 2.1c-28.7 4.7-55 27.6-63.5 55.1-1.3 4.2-2.8 7.4-3.2 7.2-3-1.9-17.7-4.7-25.7-4.9-27.9-.7-53.3 13-67.5 36.4-4.5 7.5-8.9 18.2-10 24.6-.3 1.6-.8 4.1-1.1 5.5-.7 3.4-.7 19.8 0 23.5 3.5 18.9 12.2 35.9 23.2 45.8l2.3 2-7.1 7.4c-15.1 15.9-22.1 32.8-22.2 53.3-.1 6 .2 8.2 1.9 17.8 2.7 15.6 15.2 34.2 30.9 45.8 7.8 5.8 22.2 12.2 31.5 13.9 10.4 2 28.3 1.2 38.8-1.6 1-.3 2 2 3.4 7.1 4.7 18 17.1 36.1 30.3 44.6 1.7 1 3.2 2.1 3.5 2.4 2.6 2.8 19.8 9.1 28.5 10.5 9.4 1.5 25.1.7 31.1-1.5 1.6-.6 2.9-1 2.9-.9 0 .7 11.2-3.6 12.6-4.7.8-.8 2.3-1.4 3.2-1.4.9 0 1.7-.5 1.7-1 0-.6.5-1 1.2-1 1.4 0 10.4-6.8 15.6-11.7 8.8-8.5 15.8-19.6 20.3-32.3 1.7-4.6 3.2-7.4 4.1-7.4.7.1 4.7 1.1 8.8 2.2 6.2 1.8 9.7 2.1 20 1.8 6.9-.2 13.8-.6 15.3-1 9.8-2.3 21-7.5 29.2-13.6 5.3-3.9 15.5-14.4 15.5-15.9 0-.5.4-1.1.8-1.3 2.4-.9 11.2-20.1 12.7-27.5 3.2-15.7 2.1-33.4-2.8-46.3-2.2-5.8-5.8-13.4-6.5-14-.4-.3-1.3-1.7-2.1-3.2-.8-1.5-4-5.5-7.1-9l-5.7-6.3 4.3-3.8c9.2-8.1 18.9-23.5 22-34.9 5.2-19 3.3-39.1-5.1-55.9-4.6-9.2-7.4-13-15.5-20.9-12.6-12.4-28.2-20.3-45-22.7-9.6-1.4-26.9-.4-32.8 1.8-3.3 1.3-3.8 1.1-3.9-1.3-.4-4.2-4.6-16.4-7.9-22.8-9.8-18.7-27.9-33.1-48.4-38.6-7.2-1.9-24.7-2.6-32.5-1.3zm-6 156.6c12 2.6 26.1 1.8 39.1-2.2 1.9-.6 2.2-.2 2.8 3.5.3 2.2 1 4.9 1.5 5.8.4.9 2.3 4.8 4.1 8.7 4.3 9 7.6 13.7 13.9 20.3l5.1 5.3-6 6.2c-3.3 3.4-6 6.7-6 7.3 0 .6-.6 1.6-1.3 2.2-2.1 1.8-7.4 13.1-9.7 20.9-1.2 4-2.4 7.3-2.5 7.3-.2 0-3-.7-6.2-1.5-8.2-2.2-22.3-2.6-31.8-.9-12.9 2.4-12.7 2.4-13.7-1.6-.5-1.9-1.2-4.4-1.7-5.5-6.5-15.5-10.8-22.2-19.9-30.8l-3.3-3.1 3.3-3.1c9.4-8.9 18.1-23.9 21.1-36.5.9-3.8 1.5-4.9 2.7-4.4.8.3 4.7 1.3 8.5 2.1z"/></svg>