<?xml version="1.0" standalone="no"?>
<!DOCTYPE svg PUBLIC "-//W3C//DTD SVG 20010904//EN"
 "http://www.w3.org/TR/2001/REC-SVG-20010904/DTD/svg10.dtd">
<svg version="1.0" xmlns="http://www.w3.org/2000/svg"
 width="400.000000pt" height="400.000000pt" viewBox="0 0 400.000000 400.000000"
 preserveAspectRatio="xMidYMid meet">
<metadata>
Created by potrace 1.11, written by Peter Selinger 2001-2013
</metadata>
<g transform="translate(0.000000,400.000000) scale(0.100000,-0.100000)"
fill="#000000" stroke="none">
<path d="M1905 3979 c-287 -47 -550 -276 -635 -551 -13 -42 -28 -74 -32 -72
-30 19 -177 47 -257 49 -279 7 -533 -130 -675 -364 -45 -75 -89 -182 -100
-246 -3 -16 -8 -41 -11 -55 -7 -34 -7 -198 0 -235 35 -189 122 -359 232 -458
l23 -20 -71 -74 c-151 -159 -221 -328 -222 -533 -1 -60 2 -82 19 -178 27 -156
152 -342 309 -458 78 -58 222 -122 315 -139 104 -20 283 -12 388 16 10 3 20
-20 34 -71 47 -180 171 -361 303 -446 17 -10 32 -21 35 -24 26 -28 198 -91
285 -105 94 -15 251 -7 311 15 16 6 29 10 29 9 0 -7 112 36 126 47 8 8 23 14
32 14 9 0 17 5 17 10 0 6 5 10 12 10 14 0 104 68 156 117 88 85 158 196 203
323 17 46 32 74 41 74 7 -1 47 -11 88 -22 62 -18 97 -21 200 -18 69 2 138 6
153 10 98 23 210 75 292 136 53 39 155 144 155 159 0 5 4 11 8 13 24 9 112
201 127 275 32 157 21 334 -28 463 -22 58 -58 134 -65 140 -4 3 -13 17 -21 32
-8 15 -40 55 -71 90 l-57 63 43 38 c92 81 189 235 220 349 52 190 33 391 -51
559 -46 92 -74 130 -155 209 -126 124 -282 203 -450 227 -96 14 -269 4 -328
-18 -33 -13 -38 -11 -39 13 -4 42 -46 164 -79 228 -98 187 -279 331 -484 386
-72 19 -247 26 -325 13z m-60 -1566 c120 -26 261 -18 391 22 19 6 22 2 28 -35
3 -22 10 -49 15 -58 4 -9 23 -48 41 -87 43 -90 76 -137 139 -203 l51 -53 -60
-62 c-33 -34 -60 -67 -60 -73 0 -6 -6 -16 -13 -22 -21 -18 -74 -131 -97 -209
-12 -40 -24 -73 -25 -73 -2 0 -30 7 -62 15 -82 22 -223 26 -318 9 -129 -24
-127 -24 -137 16 -5 19 -12 44 -17 55 -65 155 -108 222 -199 308 l-33 31 33
31 c94 89 181 239 211 365 9 38 15 49 27 44 8 -3 47 -13 85 -21z"/>
</g>
</svg>
